<?xml version="1.0" standalone="no"?>
<!DOCTYPE svg PUBLIC "-//W3C//DTD SVG 20010904//EN"
 "http://www.w3.org/TR/2001/REC-SVG-20010904/DTD/svg10.dtd">
<svg version="1.0" xmlns="http://www.w3.org/2000/svg"
 width="500.000000pt" height="500.000000pt" viewBox="0 0 500.000000 500.000000"
 preserveAspectRatio="xMidYMid meet">

<g transform="translate(0.000000,500.000000) scale(0.100000,-0.100000)"
fill="#000000" stroke="none">
<path d="M2812 3548 c-19 -19 -14 -46 12 -63 31 -21 38 -49 15 -63 -16 -11
-18 -30 -19 -213 0 -248 -4 -239 116 -239 119 0 114 -9 114 226 0 207 -6 237
-43 234 -12 -1 -46 -2 -75 -1 -45 1 -54 4 -61 23 -5 15 -3 30 6 45 28 42 -29
87 -65 51z m48 -13 c10 -12 10 -18 0 -29 -14 -18 -40 -10 -40 13 0 32 20 40
40 16z m148 -125 c20 0 22 -5 22 -55 l0 -55 -36 0 c-21 0 -33 -4 -29 -10 3 -5
20 -10 36 -10 l30 0 -3 -142 -3 -143 -90 0 -90 0 -3 148 c-2 96 1 147 8 147 5
0 10 5 10 11 0 6 -6 9 -13 6 -9 -3 -11 8 -7 47 6 58 16 64 36 21 l14 -30 -5
39 -4 39 52 -7 c29 -3 62 -6 75 -6z"/>
<path d="M2882 3287 c-12 -13 -22 -28 -22 -34 0 -14 35 -44 57 -47 14 -2 17
-10 15 -39 -4 -41 11 -53 53 -43 21 5 25 12 25 46 l0 40 -40 0 -40 0 16 25
c16 25 16 27 -6 50 -29 31 -31 31 -58 2z m58 -25 c0 -4 -7 -15 -14 -24 -12
-17 -14 -17 -31 1 -14 17 -15 22 -3 34 13 15 48 6 48 -11z m54 -88 c8 -21 -1
-34 -25 -34 -14 0 -19 7 -19 25 0 29 34 36 44 9z"/>
<path d="M2440 2911 c-19 -5 -25 -14 -25 -36 0 -39 12 -41 258 -40 l207 2 0
-239 c0 -226 1 -239 20 -258 16 -16 25 -18 40 -10 19 10 20 24 22 258 l3 247
154 2 c84 0 158 6 163 11 18 18 4 56 -22 63 -34 9 -788 9 -820 0z"/>
<path d="M1125 2791 c-176 -44 -245 -252 -127 -383 49 -54 102 -78 176 -78 68
0 134 27 166 68 24 30 23 49 -5 68 -18 11 -25 9 -64 -17 -54 -36 -80 -43 -126
-35 -80 15 -137 106 -115 185 11 43 64 97 106 107 39 10 93 -3 129 -31 37 -28
55 -31 73 -13 60 60 -100 157 -213 129z"/>
<path d="M1577 2786 c-102 -28 -167 -114 -167 -220 1 -252 327 -328 442 -103
23 46 26 139 5 188 -45 108 -166 166 -280 135z m129 -92 c110 -52 109 -211 -1
-264 -52 -25 -78 -25 -131 1 -31 15 -48 32 -63 63 -27 54 -26 83 2 136 38 73
118 99 193 64z"/>
<path d="M2105 2791 c-143 -35 -223 -191 -164 -321 25 -55 43 -75 93 -108 48
-30 144 -41 200 -22 52 17 106 66 106 96 0 32 -37 48 -65 28 -58 -41 -100 -56
-137 -51 -144 19 -177 214 -48 279 53 27 99 23 154 -14 54 -35 79 -31 84 14 4
35 -56 84 -120 98 -54 11 -60 11 -103 1z"/>
<path d="M2417 2793 c-11 -10 -8 -409 3 -437 6 -18 17 -26 33 -26 38 0 47 19
47 99 1 74 1 77 34 101 18 13 36 24 39 25 4 0 37 -49 75 -110 50 -81 74 -111
90 -113 27 -4 52 14 52 36 0 8 -34 66 -76 130 -41 63 -72 118 -67 121 4 4 33
27 63 51 58 46 80 69 80 82 0 11 -38 48 -50 48 -5 0 -59 -43 -119 -95 -60 -52
-112 -95 -115 -95 -3 0 -6 36 -6 79 0 59 -4 84 -16 95 -16 16 -55 22 -67 9z"/>
<path d="M3234 2794 c-6 -3 -48 -99 -94 -215 -90 -225 -92 -241 -36 -247 23
-3 29 3 47 42 l20 46 85 0 85 0 19 -45 c15 -35 24 -45 43 -45 27 0 47 17 47
40 0 24 -150 393 -167 413 -16 17 -28 20 -49 11z m60 -228 c15 -38 25 -70 23
-73 -3 -2 -32 -3 -65 -1 l-60 3 30 78 c17 44 34 75 38 70 4 -4 19 -39 34 -77z"/>
<path d="M3527 2793 c-4 -3 -7 -104 -7 -223 0 -234 2 -245 52 -238 l23 3 3
220 c2 198 1 221 -15 232 -18 14 -46 17 -56 6z"/>
<path d="M3700 2581 c0 -186 2 -222 16 -235 12 -13 41 -16 153 -16 140 0 161
5 161 40 0 39 -32 50 -143 50 l-107 0 0 178 c0 192 -3 202 -52 202 l-28 0 0
-219z"/>
<path d="M2665 2278 c-2 -7 -3 -26 -2 -43 1 -16 -2 -41 -6 -55 -5 -18 -2 -16
10 8 9 17 23 32 31 32 17 0 13 -50 -11 -121 -18 -54 -6 -92 30 -97 17 -3 29 8
51 43 l29 47 7 -40 c9 -62 31 -61 52 3 9 30 31 77 49 104 18 27 31 51 29 54
-2 2 7 10 21 17 14 7 28 10 31 7 4 -4 -7 -42 -25 -86 -33 -86 -36 -103 -21
-130 22 -43 55 -30 98 39 21 33 22 34 22 10 1 -32 19 -56 52 -69 44 -17 82 19
135 125 25 52 50 94 55 94 20 0 20 -37 -1 -101 -23 -73 -21 -103 8 -119 14 -7
24 -3 43 18 27 30 47 62 66 105 19 45 4 31 -22 -21 -30 -60 -62 -99 -72 -89
-4 4 5 36 19 72 15 36 27 74 27 85 0 10 -16 31 -35 46 -28 21 -34 31 -29 51 6
21 3 24 -12 21 -15 -3 -19 -12 -19 -48 -1 -33 -12 -66 -41 -119 -65 -122 -124
-147 -124 -52 0 43 3 50 24 55 13 3 40 24 60 47 46 50 46 83 -1 87 -45 4 -98
-46 -134 -126 -33 -73 -65 -122 -81 -122 -14 0 -3 40 33 123 32 73 34 104 8
120 -29 18 -78 -11 -116 -70 -20 -29 -38 -51 -41 -49 -2 3 8 30 22 62 31 67
31 64 7 64 -21 0 -71 -53 -71 -75 0 -42 -89 -189 -105 -173 -3 3 5 35 19 70
34 85 33 102 -8 133 -30 23 -34 30 -26 51 8 20 7 24 -11 24 -11 0 -21 -6 -24
-12z m550 -47 c0 -20 -47 -78 -72 -90 -28 -13 -29 -3 -7 42 29 55 79 85 79 48z"/>
<path d="M2301 2233 c-90 -71 -95 -235 -7 -235 29 0 81 42 92 74 7 25 24 23
24 -3 0 -22 51 -79 70 -79 7 0 28 17 49 37 20 20 41 38 46 39 6 0 16 2 23 2
13 2 52 59 52 77 0 6 -9 -4 -20 -22 -10 -17 -29 -37 -41 -44 -20 -10 -21 -9
-14 7 4 11 10 40 12 67 5 40 3 47 -12 47 -38 0 -59 -68 -33 -109 9 -15 7 -23
-8 -44 -20 -29 -48 -42 -64 -32 -18 11 -11 108 11 150 33 63 60 87 87 80 15
-4 21 -2 17 5 -9 15 -62 12 -95 -5 -33 -17 -62 -55 -80 -106 -22 -62 -78 -131
-103 -127 -19 3 -22 10 -25 52 -5 81 73 215 105 182 4 -3 1 -18 -6 -32 -10
-22 -9 -25 6 -22 22 4 29 34 13 53 -19 23 -61 18 -99 -12z"/>
</g>
</svg>
